<?xml version="1.0" encoding="UTF-8"?> <svg xmlns="http://www.w3.org/2000/svg" width="16.48" height="16.479" viewBox="0 0 16.48 16.479"><g id="Groupe_6463" data-name="Groupe 6463" transform="translate(-1378.424 -6363.5)"><path id="Tracé_1448" data-name="Tracé 1448" d="M48.95,46.568V40.532c0-2.966-.639-5.232-4.1-5.232a3.577,3.577,0,0,0-3.234,1.772h-.041v-1.5H38.3v11h3.42V41.109c0-1.442.268-2.822,2.039-2.822,1.751,0,1.772,1.627,1.772,2.9v5.356h3.42Z" transform="translate(1345.953 6333.412)" fill="#fff"></path><path id="Tracé_1449" data-name="Tracé 1449" d="M11.3,36.6h3.42v11H11.3Z" transform="translate(1367.392 6332.379)" fill="#fff"></path><path id="Tracé_1450" data-name="Tracé 1450" d="M11.978,10a1.988,1.988,0,1,0,1.978,1.978A1.978,1.978,0,0,0,11.978,10Z" transform="translate(1368.424 6353.5)" fill="#fff"></path></g></svg> 