<?xml version="1.0" encoding="UTF-8"?> <svg xmlns="http://www.w3.org/2000/svg" width="309" height="21.543" viewBox="0 0 309 21.543"><g id="TP_Logo_Principal_Noir" transform="translate(-115.22 -132.89)"><path id="Tracé_1" data-name="Tracé 1" d="M125.059,137.616H115.22V133.99h23.86v3.626h-5.525a4.319,4.319,0,0,0-4.317,4.314l-.018,12.8h-4.157V137.616Z" transform="translate(0 -0.7)" fill="#fff"></path><path id="Tracé_2" data-name="Tracé 2" d="M189.11,133.99h21.274v3.6H193.267v4.747h16.262v3.546H197.585a4.318,4.318,0,0,0-4.317,4.317v.935h17.357v3.6H189.11V133.994Z" transform="translate(-47.015 -0.7)" fill="#fff"></path><path id="Tracé_3" data-name="Tracé 3" d="M256.69,143.66c0-8.773,2.32-10.77,13.036-10.77,10.1,0,12.53,1.68,12.53,7.358v.48h-4.077v-.135c0-3.306-1.255-4.052-8.453-4.052-7.733,0-8.853.8-8.853,7.092s1.12,7.143,8.853,7.143,8.5-.855,8.5-4.292v-.24h4.081v.615c0,5.812-2.291,7.573-12.585,7.573s-13.036-2-13.036-10.77Z" transform="translate(-90.015 0)" fill="#fff"></path><path id="Tracé_4" data-name="Tracé 4" d="M337.91,133.984h4.157V142.3h16.422v-8.318h4.186v20.743h-4.186v-8.693h-12.1a4.318,4.318,0,0,0-4.317,4.317v4.372H337.91V133.98Z" transform="translate(-141.694 -0.694)" fill="#fff"></path><path id="Tracé_5" data-name="Tracé 5" d="M418.69,133.99h6.027l15.622,16.691h.055V133.99h4.132v20.743h-5.972l-14.265-15.156a.863.863,0,0,0-1.491.593v14.563H418.69Z" transform="translate(-193.093 -0.7)" fill="#fff"></path><path id="Tracé_6" data-name="Tracé 6" d="M500.71,143.66c0-8.744,2.186-10.77,13.465-10.77s13.465,2.026,13.465,10.77-2.16,10.77-13.465,10.77S500.71,152.4,500.71,143.66Zm13.465,7.118c8.264,0,9.253-.8,9.253-7.143s-.986-7.092-9.253-7.092-9.278.8-9.278,7.092S505.882,150.778,514.175,150.778Z" transform="translate(-245.28 0)" fill="#fff"></path><path id="Tracé_7" data-name="Tracé 7" d="M585.74,136.861a2.88,2.88,0,0,1,2.881-2.881H599.9c7.143,0,9.224,1.6,9.224,7.223s-2.08,7.253-9.224,7.253h-10v6.267h-4.157V136.861Zm14.025,7.973c4.077,0,5.227-.615,5.227-3.626s-1.146-3.626-5.227-3.626H589.9v7.253Z" transform="translate(-299.384 -0.693)" fill="#fff"></path><path id="Tracé_8" data-name="Tracé 8" d="M659.55,133.984h15.116c6.318,0,8.344,1.6,8.344,6.292,0,3.121-.906,4.877-3.652,5.547v.105c2.826.455,3.626,1.466,3.626,5.037v3.761h-4.157v-3.041c0-2.986-.535-4.081-4.957-4.081h-5.838a4.317,4.317,0,0,0-4.317,4.317v2.8h-4.157V133.98Zm14.825,9.995c3.332,0,4.477-.535,4.477-3.172s-1.095-3.226-4.587-3.226H663.707v6.4h10.664Z" transform="translate(-346.347 -0.693)" fill="#fff"></path><path id="Tracé_9" data-name="Tracé 9" d="M734.03,143.66c0-8.744,2.186-10.77,13.465-10.77s13.465,2.026,13.465,10.77-2.16,10.77-13.465,10.77S734.03,152.4,734.03,143.66Zm13.465,7.118c8.264,0,9.253-.8,9.253-7.143s-.986-7.092-9.253-7.092-9.278.8-9.278,7.092S739.2,150.778,747.494,150.778Z" transform="translate(-393.737 0)" fill="#fff"></path><path id="Tracé_10" data-name="Tracé 10" d="M819.06,133.99h20.848v3.626H823.217v5.467h15.891v3.626h-11.57a4.318,4.318,0,0,0-4.317,4.317v3.706h-4.157V133.99Z" transform="translate(-447.841 -0.7)" fill="#fff"></path><path id="Tracé_11" data-name="Tracé 11" d="M885.98,133.99h4.186v20.743H885.98Z" transform="translate(-490.421 -0.7)" fill="#fff"></path><path id="Tracé_12" data-name="Tracé 12" d="M910.169,133.984h4.186v12.8a4.318,4.318,0,0,0,4.317,4.317h11.359v3.626H910.169V133.98Z" transform="translate(-505.812 -0.694)" fill="#fff"></path></g></svg> 